<svg width="272" height="33" fill="none" xmlns="http://www.w3.org/2000/svg"><path d="M272 10a4 4 0 11-8 0 4 4 0 018 0z" fill="#F8E7A1"/><path d="M7.104 19.488h7.744V24H.992v-4.352l7.424-8.992h-7.36V6.144h13.632v4.352l-7.584 8.992zM28.835 5.952c2.048 0 3.69.683 4.928 2.048 1.237 1.344 1.856 3.2 1.856 5.568V24h-5.44v-9.696c0-1.195-.31-2.123-.928-2.784-.619-.661-1.45-.992-2.496-.992-1.045 0-1.877.33-2.496.992-.619.661-.928 1.59-.928 2.784V24h-5.472V.32h5.472v8.224c.555-.79 1.312-1.419 2.272-1.888.96-.47 2.037-.704 3.232-.704zm27.419 8.832c0 .512-.032 1.045-.096 1.6H43.773c.086 1.11.438 1.963 1.056 2.56.64.576 1.42.864 2.337.864 1.365 0 2.314-.576 2.848-1.728h5.823a7.89 7.89 0 01-1.632 3.168c-.767.939-1.738 1.675-2.911 2.208-1.174.533-2.486.8-3.936.8-1.75 0-3.307-.373-4.672-1.12a7.967 7.967 0 01-3.2-3.2c-.768-1.387-1.152-3.008-1.152-4.864 0-1.856.373-3.477 1.12-4.864a7.966 7.966 0 013.2-3.2c1.365-.747 2.933-1.12 4.703-1.12 1.729 0 3.264.363 4.608 1.088a7.708 7.708 0 013.136 3.104c.769 1.344 1.153 2.912 1.153 4.704zm-5.6-1.44c0-.939-.32-1.685-.96-2.24-.64-.555-1.44-.832-2.4-.832-.918 0-1.697.267-2.336.8-.62.533-1.003 1.29-1.152 2.272h6.848zM70.02 5.952c2.09 0 3.755.683 4.992 2.048 1.259 1.344 1.888 3.2 1.888 5.568V24h-5.44v-9.696c0-1.195-.31-2.123-.928-2.784-.618-.661-1.45-.992-2.496-.992-1.045 0-1.877.33-2.496.992-.618.661-.928 1.59-.928 2.784V24H59.14V6.144h5.472v2.368c.555-.79 1.302-1.408 2.24-1.856.939-.47 1.995-.704 3.168-.704zm28.923.192l-11.2 26.336h-5.888l4.096-9.088-7.264-17.248h6.112l4.128 11.168 4.096-11.168h5.92zm.891 8.896c0-1.835.341-3.445 1.024-4.832.704-1.387 1.653-2.453 2.848-3.2 1.194-.747 2.528-1.12 4-1.12 1.258 0 2.357.256 3.296.768.96.512 1.696 1.184 2.208 2.016V6.144h5.472V24h-5.472v-2.528c-.534.832-1.28 1.504-2.24 2.016-.939.512-2.038.768-3.296.768-1.451 0-2.774-.373-3.968-1.12-1.195-.768-2.144-1.845-2.848-3.232-.683-1.408-1.025-3.03-1.025-4.864zm13.376.032c0-1.365-.384-2.443-1.152-3.232-.747-.79-1.664-1.184-2.752-1.184-1.088 0-2.016.395-2.784 1.184-.747.768-1.12 1.835-1.12 3.2 0 1.365.373 2.453 1.12 3.264.768.79 1.696 1.184 2.784 1.184 1.088 0 2.005-.395 2.752-1.184.768-.79 1.152-1.867 1.152-3.232zm23.476 9.184c-1.558 0-2.945-.267-4.161-.8-1.216-.533-2.175-1.259-2.879-2.176a5.846 5.846 0 01-1.184-3.136h5.408c.064.619.352 1.12.864 1.504.512.384 1.141.576 1.888.576.682 0 1.205-.128 1.567-.384.384-.277.577-.63.577-1.056 0-.512-.267-.885-.801-1.12-.533-.256-1.397-.533-2.591-.832-1.28-.299-2.347-.608-3.201-.928a5.751 5.751 0 01-2.208-1.568c-.618-.725-.927-1.696-.927-2.912 0-1.024.277-1.952.832-2.784.576-.853 1.407-1.525 2.495-2.016 1.11-.49 2.422-.736 3.936-.736 2.24 0 4 .555 5.28 1.664 1.302 1.11 2.049 2.581 2.241 4.416h-5.056c-.086-.619-.363-1.11-.832-1.472-.448-.363-1.046-.544-1.793-.544-.64 0-1.13.128-1.472.384-.341.235-.511.565-.511.992 0 .512.266.896.8 1.152.554.256 1.408.512 2.56.768 1.322.341 2.399.683 3.231 1.024.832.32 1.558.853 2.177 1.6.64.725.97 1.707.991 2.944a4.706 4.706 0 01-.896 2.816c-.576.81-1.418 1.45-2.528 1.92-1.088.47-2.357.704-3.807.704zm27.411-9.472c0 .512-.032 1.045-.096 1.6h-12.384c.086 1.11.438 1.963 1.056 2.56.64.576 1.419.864 2.336.864 1.366 0 2.315-.576 2.848-1.728h5.824a7.872 7.872 0 01-1.632 3.168c-.768.939-1.738 1.675-2.912 2.208-1.173.533-2.485.8-3.936.8-1.749 0-3.306-.373-4.672-1.12a7.97 7.97 0 01-3.2-3.2c-.768-1.387-1.152-3.008-1.152-4.864 0-1.856.374-3.477 1.12-4.864a7.968 7.968 0 013.2-3.2c1.366-.747 2.934-1.12 4.704-1.12 1.728 0 3.264.363 4.608 1.088a7.704 7.704 0 013.136 3.104c.768 1.344 1.152 2.912 1.152 4.704zm-5.6-1.44c0-.939-.32-1.685-.96-2.24-.64-.555-1.44-.832-2.4-.832-.917 0-1.696.267-2.336.8-.618.533-1.002 1.29-1.152 2.272h6.848zm13.959-4.224c.64-.981 1.44-1.75 2.4-2.304.96-.576 2.027-.864 3.2-.864v5.792h-1.504c-1.365 0-2.389.299-3.072.896-.683.576-1.024 1.6-1.024 3.072V24h-5.472V6.144h5.472V9.12zm15-3.232c1.258 0 2.357.256 3.295.768.96.512 1.697 1.184 2.209 2.016V6.144h5.472v17.824c0 1.643-.331 3.125-.993 4.448-.64 1.344-1.631 2.41-2.975 3.2-1.323.79-2.977 1.184-4.961 1.184-2.645 0-4.789-.63-6.431-1.888-1.643-1.237-2.582-2.923-2.817-5.056h5.408c.171.683.577 1.216 1.217 1.6.64.405 1.429.608 2.367.608 1.131 0 2.027-.33 2.689-.992.682-.64 1.024-1.675 1.024-3.104V21.44c-.534.832-1.27 1.515-2.209 2.048-.938.512-2.037.768-3.295.768-1.472 0-2.806-.373-4-1.12-1.195-.768-2.145-1.845-2.849-3.232-.682-1.408-1.024-3.03-1.024-4.864 0-1.835.342-3.445 1.024-4.832.704-1.387 1.654-2.453 2.849-3.2 1.194-.747 2.528-1.12 4-1.12zm5.504 9.184c0-1.365-.385-2.443-1.153-3.232-.746-.79-1.664-1.184-2.752-1.184-1.088 0-2.016.395-2.784 1.184-.746.768-1.119 1.835-1.119 3.2 0 1.365.373 2.453 1.119 3.264.768.79 1.696 1.184 2.784 1.184 1.088 0 2.006-.395 2.752-1.184.768-.79 1.153-1.867 1.153-3.232zm26.262-.288c0 .512-.032 1.045-.096 1.6h-12.384c.086 1.11.438 1.963 1.056 2.56.64.576 1.419.864 2.336.864 1.366 0 2.315-.576 2.848-1.728h5.824a7.872 7.872 0 01-1.632 3.168c-.768.939-1.738 1.675-2.912 2.208-1.173.533-2.485.8-3.936.8-1.749 0-3.306-.373-4.672-1.12a7.97 7.97 0 01-3.2-3.2c-.768-1.387-1.152-3.008-1.152-4.864 0-1.856.374-3.477 1.12-4.864a7.968 7.968 0 013.2-3.2c1.366-.747 2.934-1.12 4.704-1.12 1.728 0 3.264.363 4.608 1.088a7.704 7.704 0 013.136 3.104c.768 1.344 1.152 2.912 1.152 4.704zm-5.6-1.44c0-.939-.32-1.685-.96-2.24-.64-.555-1.44-.832-2.4-.832-.917 0-1.696.267-2.336.8-.618.533-1.002 1.29-1.152 2.272h6.848zm25.319 1.44c0 .512-.032 1.045-.096 1.6h-12.384c.085 1.11.437 1.963 1.056 2.56.64.576 1.419.864 2.336.864 1.365 0 2.315-.576 2.848-1.728h5.824a7.897 7.897 0 01-1.632 3.168c-.768.939-1.739 1.675-2.912 2.208-1.173.533-2.485.8-3.936.8-1.749 0-3.307-.373-4.672-1.12a7.97 7.97 0 01-3.2-3.2c-.768-1.387-1.152-3.008-1.152-4.864 0-1.856.373-3.477 1.12-4.864a7.968 7.968 0 013.2-3.2c1.365-.747 2.933-1.12 4.704-1.12 1.728 0 3.264.363 4.608 1.088a7.71 7.71 0 013.136 3.104c.768 1.344 1.152 2.912 1.152 4.704zm-5.6-1.44c0-.939-.32-1.685-.96-2.24-.64-.555-1.44-.832-2.4-.832-.917 0-1.696.267-2.336.8-.619.533-1.003 1.29-1.152 2.272h6.848zm16.519 5.536l3.872-12.736h5.824L253.22 24h-6.752l-6.336-17.856h5.856l3.872 12.736z" fill="#E5E5E5"/></svg>